<?xml version="1.0" encoding="utf-8"?>
<!-- Generator: Adobe Illustrator 16.0.0, SVG Export Plug-In . SVG Version: 6.00 Build 0)  -->
<!DOCTYPE svg PUBLIC "-//W3C//DTD SVG 1.1//EN" "http://www.w3.org/Graphics/SVG/1.1/DTD/svg11.dtd">
<svg version="1.1" id="Capa_1" xmlns="http://www.w3.org/2000/svg" xmlns:xlink="http://www.w3.org/1999/xlink" x="0px" y="0px"
	 width="18.659px" height="18.66px" viewBox="0 0 18.659 18.66" enable-background="new 0 0 18.659 18.66" xml:space="preserve">
<g>
	<path fill-rule="evenodd" clip-rule="evenodd" fill="#36A9E1" d="M18.669,8.877c0,0.306,0,0.609,0,0.914
		c-0.062,0.348-0.124,0.694-0.18,1.044c-0.605,3.77-3.442,6.767-7.168,7.563c-0.507,0.107-1.021,0.181-1.53,0.27
		c-0.305,0-0.608,0-0.913,0c-0.35-0.061-0.696-0.123-1.045-0.179c-3.769-0.606-6.767-3.442-7.563-7.168
		C0.162,10.813,0.089,10.301,0,9.791c0-0.305,0-0.608,0-0.914c0.061-0.348,0.123-0.695,0.18-1.044
		c0.604-3.769,3.442-6.767,7.168-7.563C7.854,0.162,8.367,0.089,8.878,0c0.305,0,0.608,0,0.913,0c0.348,0.06,0.695,0.123,1.044,0.18
		c3.771,0.604,6.768,3.441,7.563,7.168C18.506,7.854,18.579,8.367,18.669,8.877z M2.637,6.542c0,0.241,0,0.378,0,0.513
		c0,1.782,0,3.564,0,5.347c0.002,0.716,0.157,0.875,0.881,0.875c3.882,0.002,7.764,0.002,11.647,0c0.696,0,0.86-0.167,0.861-0.852
		c0.001-1.796,0.001-3.592-0.002-5.389c0-0.141-0.022-0.28-0.039-0.481c-0.177,0.095-0.284,0.149-0.388,0.211
		c-1.942,1.133-3.886,2.263-5.821,3.407c-0.309,0.184-0.553,0.2-0.872,0.012C6.983,9.042,5.052,7.919,3.122,6.792
		C2.997,6.718,2.863,6.658,2.637,6.542z M9.378,5.392c-1.949,0-3.897-0.003-5.845,0.003c-0.204,0.001-0.42,0.021-0.606,0.093
		c-0.104,0.04-0.189,0.196-0.228,0.316C2.684,5.854,2.805,5.97,2.887,6.019c2.022,1.188,4.051,2.364,6.068,3.558
		c0.272,0.162,0.471,0.17,0.749,0.005c1.969-1.169,3.951-2.316,5.923-3.479c0.133-0.077,0.229-0.222,0.341-0.335
		c-0.166-0.122-0.318-0.272-0.502-0.354c-0.128-0.058-0.299-0.021-0.451-0.021C13.136,5.391,11.256,5.391,9.378,5.392z"/>
	<g>
		<path fill-rule="evenodd" clip-rule="evenodd" fill="#FFFFFF" d="M2.637,6.542c0.227,0.116,0.36,0.176,0.485,0.25
			c1.93,1.127,3.861,2.25,5.782,3.393c0.319,0.188,0.563,0.172,0.872-0.012c1.936-1.145,3.879-2.274,5.821-3.407
			c0.104-0.062,0.211-0.116,0.388-0.211c0.017,0.201,0.039,0.341,0.039,0.481c0.003,1.797,0.003,3.593,0.002,5.389
			c-0.001,0.685-0.165,0.852-0.861,0.852c-3.884,0.002-7.766,0.002-11.647,0c-0.724,0-0.879-0.159-0.881-0.875
			c0-1.782,0-3.564,0-5.347C2.637,6.92,2.637,6.783,2.637,6.542z"/>
		<path fill-rule="evenodd" clip-rule="evenodd" fill="#FFFFFF" d="M9.378,5.392c1.878-0.001,3.758-0.001,5.637,0
			c0.152,0,0.323-0.036,0.451,0.021c0.184,0.081,0.336,0.231,0.502,0.354c-0.112,0.113-0.208,0.258-0.341,0.335
			c-1.972,1.163-3.954,2.311-5.923,3.479C9.426,9.746,9.228,9.738,8.955,9.576c-2.018-1.193-4.046-2.37-6.068-3.558
			C2.805,5.97,2.684,5.854,2.699,5.804c0.038-0.12,0.123-0.276,0.228-0.316c0.187-0.071,0.402-0.092,0.606-0.093
			C5.48,5.389,7.429,5.392,9.378,5.392z"/>
	</g>
</g>
</svg>
