<?xml version="1.0" encoding="utf-8"?>
<!-- Generator: Adobe Illustrator 16.0.0, SVG Export Plug-In . SVG Version: 6.00 Build 0)  -->
<!DOCTYPE svg PUBLIC "-//W3C//DTD SVG 1.1//EN" "http://www.w3.org/Graphics/SVG/1.1/DTD/svg11.dtd">
<svg version="1.1" id="Capa_1" xmlns="http://www.w3.org/2000/svg" xmlns:xlink="http://www.w3.org/1999/xlink" x="0px" y="0px"
	 width="18.482px" height="18.482px" viewBox="0 0 18.482 18.482" enable-background="new 0 0 18.482 18.482" xml:space="preserve">
<g>
	<circle fill-rule="evenodd" clip-rule="evenodd" fill="#2FAC66" cx="9.241" cy="9.241" r="9.241"/>
	<path fill-rule="evenodd" clip-rule="evenodd" fill="#FFFFFF" d="M9.257,16.944c-4.225,0.006-7.718-3.486-7.713-7.709
		c0.004-4.21,3.479-7.691,7.682-7.697c4.226-0.005,7.716,3.483,7.713,7.708C16.935,13.454,13.459,16.938,9.257,16.944z M9.22,15.239
		c3.308,0.004,6.008-2.678,6.016-5.977c0.009-3.308-2.678-6.015-5.973-6.019C5.951,3.24,3.252,5.921,3.247,9.219
		C3.241,12.529,5.925,15.234,9.22,15.239z"/>
	<path fill-rule="evenodd" clip-rule="evenodd" fill="#2FAC66" d="M9.22,15.239c-3.295-0.005-5.979-2.71-5.973-6.02
		C3.252,5.921,5.951,3.24,9.263,3.244c3.295,0.004,5.981,2.711,5.973,6.019C15.228,12.562,12.527,15.243,9.22,15.239z M10.22,8.788
		c0-1.449,0.001-2.81-0.001-4.17c-0.002-0.635-0.346-1.043-0.866-1.036C8.83,3.588,8.517,3.965,8.517,4.594
		C8.515,6.451,8.52,8.308,8.512,10.166c-0.001,0.382,0.086,0.703,0.44,0.897c0.353,0.193,0.679,0.099,0.998-0.099
		c0.963-0.596,1.928-1.186,2.89-1.78c0.521-0.322,0.657-0.797,0.37-1.254c-0.262-0.415-0.761-0.489-1.27-0.184
		C11.387,8.078,10.835,8.415,10.22,8.788z"/>
	<path fill-rule="evenodd" clip-rule="evenodd" fill="#FFFFFF" d="M10.22,8.788c0.615-0.373,1.167-0.71,1.721-1.042
		c0.509-0.305,1.008-0.23,1.27,0.184c0.287,0.457,0.15,0.933-0.37,1.254c-0.962,0.595-1.927,1.184-2.89,1.78
		c-0.319,0.197-0.646,0.292-0.998,0.099c-0.354-0.194-0.441-0.515-0.44-0.897C8.52,8.308,8.515,6.451,8.517,4.594
		c0-0.629,0.313-1.006,0.836-1.013c0.521-0.007,0.864,0.401,0.866,1.036C10.221,5.978,10.22,7.339,10.22,8.788z"/>
</g>
</svg>
