<?xml version="1.0" encoding="utf-8"?>
<!-- Generator: Adobe Illustrator 16.0.0, SVG Export Plug-In . SVG Version: 6.00 Build 0)  -->
<!DOCTYPE svg PUBLIC "-//W3C//DTD SVG 1.1//EN" "http://www.w3.org/Graphics/SVG/1.1/DTD/svg11.dtd">
<svg version="1.1" id="Capa_1" xmlns="http://www.w3.org/2000/svg" xmlns:xlink="http://www.w3.org/1999/xlink" x="0px" y="0px"
	 width="18.482px" height="18.482px" viewBox="0 0 18.482 18.482" enable-background="new 0 0 18.482 18.482" xml:space="preserve">
<g>
	<path fill-rule="evenodd" clip-rule="evenodd" fill="#1C496B" d="M9.232,18.448C4.056,18.425-0.023,14.321,0,9.164
		C0.023,3.992,4.182-0.032,9.473,0c4.989,0.029,9.042,4.264,9.004,9.408C18.44,14.397,14.275,18.47,9.232,18.448z M15.797,13.939
		c2.107-2.467,2.448-7.313-0.859-10.541c-3.361-3.281-8.572-3.11-11.807,0.438c-2.91,3.193-2.456,7.817-0.45,10.087
		c0.084-0.183,0.157-0.358,0.241-0.525c0.673-1.331,1.714-2.238,3.118-2.737c0.365-0.13,0.67-0.125,1.032,0.07
		c1.333,0.721,2.743,0.798,4.084,0.104c0.642-0.33,1.15-0.285,1.72,0c0.325,0.164,0.646,0.337,0.947,0.542
		C14.756,12.003,15.369,12.894,15.797,13.939z"/>
	<path fill-rule="evenodd" clip-rule="evenodd" fill="#FFFFFF" d="M15.797,13.939c-0.428-1.046-1.041-1.937-1.974-2.563
		c-0.301-0.205-0.622-0.378-0.947-0.542c-0.569-0.285-1.078-0.33-1.72,0c-1.341,0.693-2.751,0.616-4.084-0.104
		c-0.362-0.195-0.667-0.2-1.032-0.07c-1.404,0.499-2.445,1.406-3.118,2.737c-0.084,0.167-0.157,0.343-0.241,0.525
		c-2.006-2.27-2.459-6.894,0.45-10.087c3.234-3.548,8.445-3.718,11.807-0.438C18.245,6.627,17.904,11.473,15.797,13.939z
		 M9.251,3.049C7.248,3.038,5.628,4.606,5.607,6.578c-0.022,2.116,1.54,3.755,3.586,3.765c2.077,0.009,3.676-1.59,3.681-3.681
		C12.879,4.651,11.284,3.062,9.251,3.049z"/>
	<path fill-rule="evenodd" clip-rule="evenodd" fill="#1C496B" d="M9.251,3.049c2.033,0.012,3.628,1.602,3.624,3.612
		c-0.005,2.09-1.604,3.69-3.681,3.681c-2.046-0.01-3.608-1.649-3.586-3.765C5.628,4.606,7.248,3.038,9.251,3.049z"/>
</g>
</svg>
