<?xml version="1.0" encoding="utf-8"?>
<!-- Generator: Adobe Illustrator 16.0.0, SVG Export Plug-In . SVG Version: 6.00 Build 0)  -->
<!DOCTYPE svg PUBLIC "-//W3C//DTD SVG 1.1//EN" "http://www.w3.org/Graphics/SVG/1.1/DTD/svg11.dtd">
<svg version="1.1" id="Capa_1" xmlns="http://www.w3.org/2000/svg" xmlns:xlink="http://www.w3.org/1999/xlink" x="0px" y="0px"
	 width="18.481px" height="18.481px" viewBox="0 0 18.481 18.481" enable-background="new 0 0 18.481 18.481" xml:space="preserve">
<g>
	<circle fill-rule="evenodd" clip-rule="evenodd" fill="#D86D11" cx="9.24" cy="9.24" r="9.24"/>
	<path fill-rule="evenodd" clip-rule="evenodd" fill="#FFFFFF" d="M16.274,9.24c-0.536-0.003-1.072,0-1.609,0
		c-1.363,0-2.727,0-4.09,0c-0.072,0-1.334,0-1.334,0c0-2.105,0-4.528,0-6.635c0-0.425-0.002-0.707,0-0.9l0,0
		c-4.161,0-7.535,3.374-7.535,7.535c0,4.162,3.374,7.535,7.535,7.535c4.162,0,7.536-3.373,7.536-7.535c0,0,0-0.001,0-0.002
		C16.614,9.264,16.435,9.241,16.274,9.24z"/>
	<path fill="#FFFFFF" d="M15.278,4.702h-1.711V2.991c0-0.415-0.336-0.751-0.75-0.751c-0.416,0-0.752,0.336-0.752,0.751v1.711h-1.711
		c-0.414,0-0.75,0.336-0.75,0.751s0.336,0.751,0.75,0.751h1.711v1.71c0,0.416,0.336,0.752,0.752,0.752
		c0.414,0,0.75-0.336,0.75-0.752v-1.71h1.711c0.415,0,0.751-0.336,0.751-0.751S15.693,4.702,15.278,4.702z"/>
	<path fill="#D86D11" d="M9.568,16.117c0,0.18-0.147,0.327-0.328,0.327l0,0c-0.181,0-0.328-0.147-0.328-0.327v-1.43
		c0-0.18,0.147-0.327,0.328-0.327l0,0c0.181,0,0.328,0.147,0.328,0.327V16.117z"/>
	<path fill="#D86D11" d="M3.951,8.912c0.181,0,0.328,0.147,0.328,0.328l0,0c0,0.182-0.147,0.328-0.328,0.328H2.522
		c-0.181,0-0.328-0.146-0.328-0.328l0,0c0-0.181,0.147-0.328,0.328-0.328H3.951z"/>
</g>
</svg>
