<?xml version="1.0" encoding="utf-8"?>
<!-- Generator: Adobe Illustrator 16.0.0, SVG Export Plug-In . SVG Version: 6.00 Build 0)  -->
<!DOCTYPE svg PUBLIC "-//W3C//DTD SVG 1.1//EN" "http://www.w3.org/Graphics/SVG/1.1/DTD/svg11.dtd">
<svg version="1.1" id="Capa_1" xmlns="http://www.w3.org/2000/svg" xmlns:xlink="http://www.w3.org/1999/xlink" x="0px" y="0px"
	 width="18.659px" height="18.66px" viewBox="0 0 18.659 18.66" enable-background="new 0 0 18.659 18.66" xml:space="preserve">
<g>
	<circle fill-rule="evenodd" clip-rule="evenodd" fill="#D86D11" cx="9.326" cy="9.326" r="9.326"/>
	<path fill-rule="evenodd" clip-rule="evenodd" fill="#FFFFFF" d="M7.033,11.857c0.092-0.091,0.157-0.15,0.221-0.213
		c2.312-2.305,4.625-4.606,6.934-6.915c0.326-0.325,0.695-0.419,1.133-0.308c0.772,0.195,0.847,1.049,0.562,1.48
		c-0.075,0.113-0.169,0.217-0.266,0.313c-2.564,2.558-5.137,5.107-7.691,7.676c-0.457,0.461-1.226,0.56-1.757-0.001
		c-1.056-1.115-2.158-2.186-3.232-3.279c-0.565-0.575-0.337-1.508,0.42-1.717c0.417-0.114,0.779,0,1.086,0.313
		c0.802,0.818,1.608,1.63,2.414,2.444C6.911,11.71,6.962,11.774,7.033,11.857z"/>
</g>
</svg>
