<?xml version="1.0" encoding="utf-8"?>
<!-- Generator: Adobe Illustrator 16.0.0, SVG Export Plug-In . SVG Version: 6.00 Build 0)  -->
<!DOCTYPE svg PUBLIC "-//W3C//DTD SVG 1.1//EN" "http://www.w3.org/Graphics/SVG/1.1/DTD/svg11.dtd">
<svg version="1.1" id="Capa_1" xmlns="http://www.w3.org/2000/svg" xmlns:xlink="http://www.w3.org/1999/xlink" x="0px" y="0px"
	 width="64px" height="41px" viewBox="0 0 64 41" enable-background="new 0 0 64 41" xml:space="preserve">
<path fill="none" stroke="#FFFFFF" stroke-width="4" stroke-miterlimit="10" d="M56.136,23.442c0,2.602-2.364,4.711-5.279,4.711
	H13.027c-2.916,0-5.28-2.109-5.28-4.711V6.959c0-2.601,2.364-4.709,5.28-4.709h37.831c2.913,0,5.277,2.109,5.277,4.709V23.442
	L56.136,23.442z"/>
<path fill="none" d="M56.457,23.442c0,2.602-2.381,4.711-5.314,4.711H13.062c-2.935,0-5.314-2.109-5.314-4.711V6.959
	c0-2.601,2.379-4.709,5.314-4.709h38.081c2.934,0,5.313,2.109,5.313,4.709L56.457,23.442L56.457,23.442z"/>
<rect x="27.103" y="28.153" fill="none" stroke="#FFFFFF" stroke-width="2" stroke-miterlimit="10" width="9.239" height="7.456"/>
<path fill="#FFFFFF" stroke="#FFFFFF" stroke-width="2" stroke-miterlimit="10" d="M50.271,37.179c0,0.868-0.786,1.567-1.76,1.567
	H14.786c-0.971,0-1.759-0.7-1.759-1.567l0,0c0-0.866,0.788-1.569,1.759-1.569h33.725C49.484,35.609,50.271,36.313,50.271,37.179
	L50.271,37.179z"/>
</svg>
