<?xml version="1.0" encoding="utf-8"?>
<!-- Generator: Adobe Illustrator 16.0.0, SVG Export Plug-In . SVG Version: 6.00 Build 0)  -->
<!DOCTYPE svg PUBLIC "-//W3C//DTD SVG 1.1//EN" "http://www.w3.org/Graphics/SVG/1.1/DTD/svg11.dtd">
<svg version="1.1" id="Capa_1" xmlns="http://www.w3.org/2000/svg" xmlns:xlink="http://www.w3.org/1999/xlink" x="0px" y="0px"
	 width="18.659px" height="18.66px" viewBox="0 0 18.659 18.66" enable-background="new 0 0 18.659 18.66" xml:space="preserve">
<g>
	<circle fill="#2FAC66" cx="9.329" cy="9.33" r="9.33"/>
	<g>
		<path fill-rule="evenodd" clip-rule="evenodd" fill="#FFFFFF" d="M8.856,16.041c-0.376-0.076-0.759-0.131-1.127-0.234
			c-2.928-0.82-4.816-3.543-4.525-6.559c0.17-1.754,0.969-3.188,2.362-4.277c0.517-0.402,1.109-0.357,1.484,0.096
			c0.386,0.465,0.325,1.074-0.194,1.494C5.849,7.375,5.28,8.416,5.233,9.709c-0.076,2.123,1.537,4,3.609,4.238
			c2.189,0.252,4.195-1.191,4.58-3.35c0.277-1.559-0.213-2.881-1.422-3.914c-0.351-0.301-0.632-0.617-0.553-1.109
			c0.125-0.791,0.992-1.141,1.643-0.656c1.219,0.908,2.012,2.115,2.318,3.598c0.707,3.406-1.353,6.598-4.726,7.377
			c-0.269,0.063-0.542,0.1-0.813,0.148C9.532,16.041,9.194,16.041,8.856,16.041z"/>
		<path fill-rule="evenodd" clip-rule="evenodd" fill="#FFFFFF" d="M9.573,2.619c0.613,0.225,0.842,0.672,0.834,1.314
			c-0.02,1.578-0.004,3.156-0.008,4.736c-0.002,0.707-0.442,1.186-1.064,1.17C8.881,9.828,8.468,9.498,8.373,9.053
			C8.341,8.898,8.33,8.738,8.329,8.58c-0.002-1.549,0.012-3.1-0.008-4.648C8.313,3.291,8.538,2.844,9.155,2.619
			C9.294,2.619,9.434,2.619,9.573,2.619z"/>
	</g>
</g>
</svg>
