<?xml version="1.0" encoding="utf-8"?>
<!-- Generator: Adobe Illustrator 16.0.0, SVG Export Plug-In . SVG Version: 6.00 Build 0)  -->
<!DOCTYPE svg PUBLIC "-//W3C//DTD SVG 1.1//EN" "http://www.w3.org/Graphics/SVG/1.1/DTD/svg11.dtd">
<svg version="1.1" id="Capa_1" xmlns="http://www.w3.org/2000/svg" xmlns:xlink="http://www.w3.org/1999/xlink" x="0px" y="0px"
	 width="18.659px" height="18.66px" viewBox="0 0 18.659 18.66" enable-background="new 0 0 18.659 18.66" xml:space="preserve">
<g>
	<circle fill="#DBA101" cx="9.33" cy="9.33" r="9.33"/>
	<path fill-rule="evenodd" clip-rule="evenodd" fill="#FEFEFF" d="M3.227,4.174c0.339-0.521,0.579-0.551,1.019-0.129
		C4.533,4.324,4.798,4.773,5.121,4.82c0.273,0.041,0.607-0.398,0.932-0.598c1.992-1.213,4.053-1.344,6.123-0.252
		c2.072,1.094,3.137,2.887,3.25,5.205c0.123,2.533-1.485,4.887-3.906,5.848c-2.299,0.914-5.018,0.262-6.69-1.58
		c-0.269-0.297-0.267-0.5,0.03-0.754c0.23-0.195,0.449-0.412,0.645-0.646c0.295-0.354,0.51-0.357,0.838,0.008
		c1.652,1.838,4.424,1.799,6.063-0.057c1.354-1.533,1.306-3.934-0.108-5.441c-1.408-1.498-3.814-1.689-5.43-0.447
		C6.6,6.311,6.612,6.439,6.848,6.648c0.275,0.244,0.521,0.52,0.781,0.783C7.785,7.59,7.874,7.764,7.771,7.992
		c-0.096,0.213-0.25,0.32-0.486,0.32c-1.17-0.002-2.341-0.004-3.511,0.002c-0.245,0.002-0.37-0.16-0.519-0.303
		C3.246,6.732,3.236,5.451,3.227,4.174z"/>
</g>
</svg>
