<?xml version="1.0" encoding="utf-8"?>
<!-- Generator: Adobe Illustrator 16.0.0, SVG Export Plug-In . SVG Version: 6.00 Build 0)  -->
<!DOCTYPE svg PUBLIC "-//W3C//DTD SVG 1.1//EN" "http://www.w3.org/Graphics/SVG/1.1/DTD/svg11.dtd">
<svg version="1.1" id="Capa_1" xmlns="http://www.w3.org/2000/svg" xmlns:xlink="http://www.w3.org/1999/xlink" x="0px" y="0px"
	 width="50px" height="50px" viewBox="0 0 53.996 53.923" enable-background="new 0 0 53.996 53.923" xml:space="preserve">
<g>
	<defs>
		<path id="SVGID_1_" d="M29.192,22.637l-5.409-9.367l7.553-13.083h15.106l7.553,13.083l-7.49,12.975V7.517H32.674L29.192,22.637z
			 M38.608,26.353v-11.3l-2.932,11.3H38.608z M46.506,27.866v18.678h-7.897V27.759h-3.296l-5.915,22.806l1.939,3.358h15.106
			l7.553-13.082L46.506,27.866z M13.503,24.05v15.947h8.421L13.503,24.05z M27.058,31.909l1.72-7.476l-6.119-10.601h-5.916
			L27.058,31.909z M7.532,13.87L0,26.916L7.532,39.96V13.87z"/>
	</defs>
	<clipPath id="SVGID_2_">
		<use xlink:href="#SVGID_1_"  overflow="visible"/>
	</clipPath>
	<rect x="6.724" y="-14.898" clip-path="url(#SVGID_2_)" fill="#FFFFFF" width="57.641" height="59.892"/>
	<polygon clip-path="url(#SVGID_2_)" fill="#FFFFFF" points="32.924,66.644 -24.718,66.644 -24.718,6.752 18.674,6.902 
		32.924,29.415 	"/>
	<rect x="28.65" y="27.086" clip-path="url(#SVGID_2_)" fill="#FFFFFF" width="32.617" height="34.213"/>
</g>
</svg>
